<svg width="838" height="832" viewBox="0 0 838 832" fill="none" xmlns="http://www.w3.org/2000/svg">
<path d="M418.815 0.267517H419.5C650.348 0.267517 837.558 181.325 837.558 404.584V427.092C837.558 650.351 650.348 831.409 419.5 831.409H418.815C187.968 831.409 0.75708 650.351 0.75708 427.092V404.584C0.75708 181.325 187.968 0.267517 418.815 0.267517Z" fill="#232323"/>
<path d="M597.983 313.063C596.614 314.552 594.903 315.711 593.021 316.373C591.138 317.2 589.085 317.531 587.031 317.531H199.433C185.743 317.531 178.727 300.981 188.31 291.051L251.969 225.678C253.338 224.189 255.049 223.031 257.102 222.203C258.985 221.376 261.038 221.044 263.092 221.044H652.23C666.091 221.044 672.936 237.76 663.182 247.69L597.983 313.063ZM597.983 605.336C595.074 608.149 591.138 609.804 587.031 609.804H199.433C185.743 609.804 178.727 593.585 188.31 583.986L251.969 520.103C253.338 518.614 255.22 517.455 257.102 516.793C258.985 515.966 261.038 515.634 263.092 515.634H652.23C666.091 515.634 672.936 532.019 663.182 541.618L597.983 605.336ZM597.983 372.808C595.074 369.995 591.138 368.339 587.031 368.339H199.433C185.743 368.339 178.727 384.559 188.31 394.158L251.969 458.041C253.338 459.53 255.22 460.689 257.102 461.351C258.985 462.178 261.038 462.509 263.092 462.509H652.23C666.091 462.509 672.936 446.125 663.182 436.526L597.983 372.808Z" fill="url(#paint0_linear_2_5)"/>
<defs>
<linearGradient id="paint0_linear_2_5" x1="213.472" y1="614.656" x2="623.115" y2="202.28" gradientUnits="userSpaceOnUse">
<stop stop-color="#CF41E8"/>
<stop offset="1" stop-color="#10F2B0"/>
</linearGradient>
</defs>
</svg>
